# xmcd
#
# Track frame offsets: 
#        150
#        14747
#        36150
#        52331
#        68938
#        83185
#        100079
#        116902
#        136799
#
# Disc length: 2061 seconds
#
# Revision: 2
# Processed by: cddbd v1.5.2PL0 Copyright (c) Steve Scherf et al.
# Submitted via: ExactAudioCopy v1.0b3
#
DISCID=80080b09
DTITLE=Trower, Robin - Long Misty Days [5060516091263-04]
DYEAR=1976
DGENRE=Rock
TTITLE0=Same Rain Falls
TTITLE1=Long Misty Days
TTITLE2=Hold Me
TTITLE3=Caledonia
TTITLE4=Pride
TTITLE5=Sailing
TTITLE6=S.M.O.
TTITLE7=I Can't Live Without You
TTITLE8=Messin The Blues
EXTD=
EXTT0=
EXTT1=
EXTT2=
EXTT3=
EXTT4=
EXTT5=
EXTT6=
EXTT7=
EXTT8=
PLAYORDER=
